<svg aria-hidden="true" style="position: absolute; width: 0; height: 0; overflow: hidden;" version="1.1" xmlns="http://www.w3.org/2000/svg" xmlns:xlink="http://www.w3.org/1999/xlink">
<defs>
<symbol id="icon-logo" viewBox="0 0 125 32">
<path fill="#f6f6f6" style="fill: var(--color1, #f6f6f6)" d="M0 2.286l14.008 13.861 13.42 13.567v-27.429h-27.429z"></path>
<path fill="#f6f6f6" style="fill: var(--color1, #f6f6f6)" d="M3.82 5.91l10.237 10.139 9.649 9.845h-19.886v-19.984z"></path>
<path fill="#4f2ee8" style="fill: var(--color2, #4f2ee8)" d="M23.771 25.959l-10.237-10.139-9.649-9.845h19.886v19.984z"></path>
<path fill="#4f2ee8" style="fill: var(--color2, #4f2ee8)" d="M7.934 10.024l11.657 11.657h-11.657v-11.657z"></path>
<path fill="#f6f6f6" style="fill: var(--color1, #f6f6f6)" d="M7.934 10.024l11.657 11.657v-11.657h-11.657z"></path>
<path fill="#000" style="fill: var(--color3, #000)" d="M47.659 12.266c0-2.366-1.749-3.703-4.773-3.703h-6.315v14.709h6.665c3.045 0 4.999-1.461 4.999-4.299 0-2.201-1.317-3.333-2.859-3.6v-0.041c1.214-0.411 2.283-1.255 2.283-3.065zM39.019 14.653v-4.011h3.929c1.461 0 2.263 0.72 2.263 2.016s-0.658 1.995-2.407 1.995h-3.785zM39.019 16.483h4.299c1.543 0 2.469 0.843 2.469 2.345 0 1.378-0.638 2.366-2.736 2.366h-4.032v-4.711z"></path>
<path fill="#000" style="fill: var(--color3, #000)" d="M54.516 23.581c-3.291 0-5.287-2.283-5.287-5.554s1.995-5.554 5.287-5.554c3.291 0 5.287 2.283 5.287 5.554s-1.995 5.554-5.287 5.554zM54.516 21.811c2.057 0 3.127-1.625 3.127-3.785 0-2.181-1.070-3.785-3.127-3.785s-3.127 1.605-3.127 3.785c0 2.16 1.070 3.785 3.127 3.785z"></path>
<path fill="#000" style="fill: var(--color3, #000)" d="M66.027 23.581c-3.291 0-5.287-2.283-5.287-5.554s1.995-5.554 5.287-5.554c3.291 0 5.287 2.283 5.287 5.554s-1.995 5.554-5.287 5.554zM66.027 21.811c2.057 0 3.127-1.625 3.127-3.785 0-2.181-1.070-3.785-3.127-3.785s-3.127 1.605-3.127 3.785c0 2.16 1.070 3.785 3.127 3.785z"></path>
<path fill="#000" style="fill: var(--color3, #000)" d="M72.807 8.563v14.709h2.16v-3.806l1.461-1.378 3.312 5.184h2.592l-4.423-6.603 3.991-3.909h-2.654l-4.279 4.217v-8.414h-2.16z"></path>
<path fill="#000" style="fill: var(--color3, #000)" d="M87.539 16.915c-1.522-0.35-2.695-0.432-2.695-1.502 0-0.741 0.699-1.234 1.995-1.234 1.687 0 2.098 0.843 2.242 1.666h2.098c-0.144-1.831-1.502-3.374-4.361-3.374-2.633 0-4.155 1.378-4.155 3.106 0 2.386 2.263 2.715 3.929 3.106 1.543 0.37 2.798 0.473 2.798 1.79 0 0.658-0.638 1.399-2.139 1.399-2.222 0-2.715-0.967-2.818-2.098h-2.098c0.103 2.222 1.563 3.806 4.958 3.806 2.551 0 4.279-1.255 4.279-3.271 0-2.51-2.098-2.942-4.032-3.394z"></path>
<path fill="#000" style="fill: var(--color3, #000)" d="M98.633 12.472c-1.769 0-2.859 0.823-3.415 1.646h-0.041v-5.554h-2.16v14.709h2.16v-6.398c0-1.563 1.131-2.571 2.715-2.571 1.502 0 2.098 0.905 2.098 2.325v6.645h2.181v-7.262c0-2.407-1.543-3.538-3.538-3.538z"></path>
<path fill="#000" style="fill: var(--color3, #000)" d="M108.796 21.811c-1.913 0-3.045-1.461-3.045-3.23h8.064c0-3.744-1.666-6.11-5.061-6.11-3.168 0-5.163 2.139-5.163 5.554 0 3.291 1.995 5.554 5.266 5.554 2.695 0 4.258-1.522 4.793-3.518h-2.16c-0.185 0.638-0.905 1.749-2.695 1.749zM108.754 14.179c1.749 0 2.901 1.173 2.901 2.798h-5.904c0-1.625 1.255-2.798 3.003-2.798z"></path>
<path fill="#000" style="fill: var(--color3, #000)" d="M115.337 8.563v14.709h2.181v-14.709h-2.181z"></path>
<path fill="#000" style="fill: var(--color3, #000)" d="M124.573 10.333v-1.769c-0.432-0.082-0.905-0.144-1.44-0.144-1.728 0-2.674 0.782-2.674 3.003v1.337h-1.502v1.769h1.502v8.743h2.181v-8.743h1.934v-1.769h-1.934v-1.152c0-1.193 0.535-1.337 1.934-1.275z"></path>
</symbol>
<symbol id="icon-shopping" viewBox="0 0 32 32">
<path d="M25.333 9.333h-4v-1.333c0-1.415-0.562-2.771-1.562-3.771s-2.357-1.562-3.771-1.562c-1.415 0-2.771 0.562-3.771 1.562s-1.562 2.357-1.562 3.771v1.333h-4c-0.354 0-0.693 0.14-0.943 0.391s-0.391 0.589-0.391 0.943v14.667c0 1.061 0.421 2.078 1.172 2.828s1.768 1.172 2.828 1.172h13.333c1.061 0 2.078-0.421 2.828-1.172s1.172-1.768 1.172-2.828v-14.667c0-0.354-0.14-0.693-0.391-0.943s-0.589-0.391-0.943-0.391zM13.333 8c0-0.707 0.281-1.386 0.781-1.886s1.178-0.781 1.886-0.781c0.707 0 1.386 0.281 1.886 0.781s0.781 1.178 0.781 1.886v1.333h-5.333v-1.333zM24 25.333c0 0.354-0.14 0.693-0.391 0.943s-0.589 0.391-0.943 0.391h-13.333c-0.354 0-0.693-0.14-0.943-0.391s-0.391-0.589-0.391-0.943v-13.333h2.667v1.333c0 0.354 0.14 0.693 0.391 0.943s0.589 0.391 0.943 0.391c0.354 0 0.693-0.14 0.943-0.391s0.391-0.589 0.391-0.943v-1.333h5.333v1.333c0 0.354 0.14 0.693 0.391 0.943s0.589 0.391 0.943 0.391 0.693-0.14 0.943-0.391c0.25-0.25 0.39-0.589 0.39-0.943v-1.333h2.667v13.333z"></path>
</symbol>
<symbol id="icon-align-left" viewBox="0 0 32 32">
<path stroke-linejoin="round" stroke-linecap="round" stroke-miterlimit="4" stroke-width="2.2857" d="M22.667 13.333h-18.667"></path>
<path stroke-linejoin="round" stroke-linecap="round" stroke-miterlimit="4" stroke-width="2.2857" d="M28 8h-24"></path>
<path stroke-linejoin="round" stroke-linecap="round" stroke-miterlimit="4" stroke-width="2.2857" d="M28 18.667h-24"></path>
<path stroke-linejoin="round" stroke-linecap="round" stroke-miterlimit="4" stroke-width="2.2857" d="M22.667 24h-18.667"></path>
</symbol>
<symbol id="icon-align-left-hover" viewBox="0 0 32 32">
<path fill="none" stroke="#4f2ee8" style="stroke: var(--color2, #4f2ee8)" stroke-linejoin="round" stroke-linecap="round" stroke-miterlimit="4" stroke-width="2.2857" d="M22.667 13.333h-18.667"></path>
<path fill="none" stroke="#4f2ee8" style="stroke: var(--color2, #4f2ee8)" stroke-linejoin="round" stroke-linecap="round" stroke-miterlimit="4" stroke-width="2.2857" d="M28 8h-24"></path>
<path fill="none" stroke="#4f2ee8" style="stroke: var(--color2, #4f2ee8)" stroke-linejoin="round" stroke-linecap="round" stroke-miterlimit="4" stroke-width="2.2857" d="M28 18.667h-24"></path>
<path fill="none" stroke="#4f2ee8" style="stroke: var(--color2, #4f2ee8)" stroke-linejoin="round" stroke-linecap="round" stroke-miterlimit="4" stroke-width="2.2857" d="M22.667 24h-18.667"></path>
</symbol>
<symbol id="icon-x-close" viewBox="0 0 32 32">
<path stroke-linejoin="round" stroke-linecap="round" stroke-miterlimit="4" stroke-width="3.4286" d="M24 8l-16 16M8 8l16 16"></path>
</symbol>
<symbol id="icon-x-close-hover" viewBox="0 0 32 32">
<path fill="none" stroke="#4f2ee8" style="stroke: var(--color2, #4f2ee8)" stroke-linejoin="round" stroke-linecap="round" stroke-miterlimit="4" stroke-width="3.4286" d="M24 8l-16 16M8 8l16 16"></path>
</symbol>
<symbol id="icon-scroll-down" viewBox="0 0 20 20">
    <path d="M9.40832 11.1668C9.48579 11.2449 9.57795 11.3069 9.6795 11.3492C9.78105 11.3915 9.88997 11.4133 9.99998 11.4133C10.11 11.4133 10.2189 11.3915 10.3205 11.3492C10.422 11.3069 10.5142 11.2449 10.5917 11.1668L14.4083 7.34176C14.4858 7.26365 14.578 7.20165 14.6795 7.15935C14.7811 7.11704 14.89 7.09526 15 7.09526C15.11 7.09526 15.2189 7.11704 15.3205 7.15935C15.422 7.20165 15.5142 7.26365 15.5917 7.34176C15.7469 7.49789 15.834 7.7091 15.834 7.92926C15.834 8.14941 15.7469 8.36062 15.5917 8.51676L11.7667 12.3418C11.2979 12.8099 10.6625 13.0729 9.99998 13.0729C9.33748 13.0729 8.70207 12.8099 8.23331 12.3418L4.40831 8.51676C4.25436 8.36154 4.16756 8.15204 4.16664 7.93342C4.16601 7.82375 4.18703 7.71503 4.2285 7.6135C4.26997 7.51197 4.33108 7.41962 4.40831 7.34176C4.48578 7.26365 4.57795 7.20165 4.6795 7.15935C4.78105 7.11704 4.88997 7.09526 4.99998 7.09526C5.10999 7.09526 5.21891 7.11704 5.32046 7.15935C5.42201 7.20165 5.51418 7.26365 5.59164 7.34176L9.40832 11.1668Z" fill="#4F2EE8"/>
</symbol>
<symbol id="icon-scroll-up" viewBox="0 0 20 20">
    <path d="M10.3488 9.71659C10.434 9.63067 10.5354 9.56248 10.6471 9.51594C10.7588 9.4694 10.8786 9.44544 10.9996 9.44544C11.1206 9.44544 11.2404 9.4694 11.3521 9.51594C11.4638 9.56248 11.5652 9.63067 11.6504 9.71659L15.8488 13.9241C15.934 14.01 16.0354 14.0782 16.1471 14.1247C16.2588 14.1713 16.3786 14.1952 16.4996 14.1952C16.6206 14.1952 16.7404 14.1713 16.8521 14.1247C16.9638 14.0782 17.0652 14.01 17.1504 13.9241C17.3212 13.7523 17.417 13.52 17.417 13.2778C17.417 13.0357 17.3212 12.8033 17.1504 12.6316L12.9429 8.42409C12.4273 7.9091 11.7283 7.61984 10.9996 7.61984C10.2708 7.61984 9.57188 7.9091 9.05625 8.42409L4.84875 12.6316C4.6794 12.8023 4.58393 13.0328 4.58292 13.2733C4.58222 13.3939 4.60534 13.5135 4.65096 13.6252C4.69658 13.7369 4.76379 13.8384 4.84875 13.9241C4.93397 14.01 5.03535 14.0782 5.14705 14.1247C5.25876 14.1713 5.37857 14.1952 5.49958 14.1952C5.62059 14.1952 5.74041 14.1713 5.85211 14.1247C5.96382 14.0782 6.0652 14.01 6.15042 13.9241L10.3488 9.71659Z" fill="#4F2EE8"/>
</symbol>
<symbol id="icon-gerb" viewBox="0 0 20 32">
    <path d="M9.00548 30.8877C7.26703 29.6252 6.0141 27.7313 5.59123 25.5369H0V2.41992C2.99139 3.86285 5.1527 7.01926 5.38763 10.2959L6.23336 16.7891L5.82615 16.744C4.93344 16.744 4.15035 17.5557 4.15035 18.3523C4.15035 19.1038 4.7455 19.7351 5.52858 19.9004L6.54659 20.1259C8.2224 17.0747 9.17776 14.0836 9.17776 11.1527C9.17776 8.50728 8.81754 5.86191 8.75489 3.15641C8.75489 1.95397 9.24041 0.85674 10.0078 0C10.7909 0.85674 11.2608 1.95397 11.2608 3.15641C11.2608 5.86191 10.8379 8.50728 10.8379 11.1527C10.8379 14.0836 11.7933 17.0747 13.4691 20.1259L14.4871 19.9004C15.2702 19.7351 15.8653 19.0888 15.8653 18.3523C15.8653 17.5406 15.0822 16.744 14.1895 16.744L13.7666 16.8041L14.6124 10.3109C15.0352 7.03429 17.0086 3.86285 20 2.43495V25.5519H14.4244C14.0016 27.7313 12.8113 29.7003 11.0102 30.9028C10.5873 31.1884 10.2271 31.5341 9.99217 32C9.77291 31.5341 9.41269 31.1884 9.00548 30.8877ZM2.64683 17.5557C2.88175 16.6989 3.53955 15.9474 4.38528 15.4814L3.72749 10.1306C3.49256 8.46219 2.77212 6.97417 1.69146 5.75669V17.5406H2.64683V17.5557ZM5.46593 23.9286C5.46593 23.117 5.59123 22.3805 5.76351 21.6289L4.98042 21.4486C3.83712 21.1029 2.9444 20.2461 2.64683 19.1489H1.69146V23.9286H5.46593ZM9.17776 23.9286C9.17776 22.9516 8.39467 22.0949 7.37666 21.9746C7.20438 22.6059 7.07909 23.2372 7.07909 23.9286H9.17776ZM9.17776 25.5519H7.31402C7.61159 26.8145 8.26938 27.9718 9.17776 28.9488V25.5519ZM11.8089 20.5467C11.0885 19.2842 10.4307 17.9615 10.0078 16.5787C9.58496 17.9615 8.92717 19.2842 8.20673 20.5467C8.92717 20.7121 9.52232 21.178 10.0078 21.7041C10.4933 21.178 11.0885 20.7121 11.8089 20.5467ZM12.9522 23.9286C12.9522 23.2372 12.8269 22.6059 12.6547 21.9746C11.6366 22.0949 10.8536 22.9516 10.8536 23.9286H12.9522ZM12.7173 25.5519H10.8536V28.9488C11.7619 27.9568 12.4197 26.8145 12.7173 25.5519ZM18.3399 23.9286V19.1489H17.3845C17.0869 20.2461 16.1785 21.1029 15.0509 21.4486L14.2678 21.6289C14.4401 22.3805 14.5654 23.117 14.5654 23.9286H18.3399ZM18.3399 17.5557V5.75669C17.2592 6.95914 16.4761 8.46219 16.3038 10.1306L15.646 15.4814C16.4918 15.9474 17.1496 16.6839 17.3845 17.5557H18.3399Z" fill="white"/>
</symbol>
<symbol id="icon-close" viewBox="0 0 32 32">
<path stroke-linejoin="round" stroke-linecap="round" stroke-miterlimit="4" stroke-width="3.4286" d="M24 8l-16 16M8 8l16 16"></path>
</symbol>

<symbol id="icon-logo-light" viewBox="0 0 32 32">
<path fill="#f6f6f6" style="fill: var(--color1, #f6f6f6)" d="M0 0l16.343 16.171 15.657 15.829v-32h-32z"></path>
<path fill="#f6f6f6" style="fill: var(--color1, #f6f6f6)" d="M4.457 4.229l11.943 11.829 11.257 11.486h-23.2v-23.314z"></path>
<path fill="#4f2ee8" style="fill: var(--color2, #4f2ee8)" d="M27.733 27.618l-11.943-11.829-11.257-11.486h23.2v23.314z"></path>
<path fill="#4f2ee8" style="fill: var(--color2, #4f2ee8)" d="M9.257 9.029l13.6 13.6h-13.6v-13.6z"></path>
<path fill="#f6f6f6" style="fill: var(--color1, #f6f6f6)" d="M9.257 9.029l13.6 13.6v-13.6h-13.6z"></path>
</symbol>


<symbol id="icon-logo-text-light" viewBox="0 0 176 32">
<path d="M22.176 8.533c0-4.731-3.497-7.406-9.545-7.406h-12.631v29.417h13.33c6.089 0 9.998-2.921 9.998-8.599 0-4.402-2.633-6.665-5.719-7.2v-0.082c2.427-0.823 4.567-2.51 4.567-6.13zM4.896 13.305v-8.023h7.858c2.921 0 4.526 1.44 4.526 4.032s-1.317 3.991-4.814 3.991h-7.57zM4.896 16.967h8.599c3.086 0 4.937 1.687 4.937 4.69 0 2.757-1.275 4.731-5.472 4.731h-8.064v-9.422z"></path>
<path d="M35.89 31.161c-6.583 0-10.574-4.567-10.574-11.109s3.991-11.109 10.574-11.109c6.583 0 10.574 4.567 10.574 11.109s-3.991 11.109-10.574 11.109zM35.89 27.623c4.114 0 6.254-3.25 6.254-7.57 0-4.361-2.139-7.57-6.254-7.57s-6.254 3.209-6.254 7.57c0 4.32 2.139 7.57 6.254 7.57z"></path>
<path d="M58.912 31.161c-6.583 0-10.574-4.567-10.574-11.109s3.991-11.109 10.574-11.109c6.583 0 10.574 4.567 10.574 11.109s-3.991 11.109-10.574 11.109zM58.912 27.623c4.114 0 6.254-3.25 6.254-7.57 0-4.361-2.139-7.57-6.254-7.57s-6.254 3.209-6.254 7.57c0 4.32 2.139 7.57 6.254 7.57z"></path>
<path d="M72.472 1.127v29.417h4.32v-7.611l2.921-2.757 6.624 10.368h5.184l-8.846-13.207 7.982-7.817h-5.307l-8.558 8.434v-16.827h-4.32z"></path>
<path d="M101.935 17.831c-3.045-0.699-5.39-0.864-5.39-3.003 0-1.481 1.399-2.469 3.991-2.469 3.374 0 4.197 1.687 4.485 3.333h4.197c-0.288-3.662-3.003-6.747-8.722-6.747-5.266 0-8.311 2.757-8.311 6.213 0 4.773 4.526 5.431 7.858 6.213 3.086 0.741 5.595 0.946 5.595 3.579 0 1.317-1.275 2.798-4.279 2.798-4.443 0-5.431-1.934-5.637-4.197h-4.197c0.206 4.443 3.127 7.611 9.915 7.611 5.102 0 8.558-2.51 8.558-6.542 0-5.019-4.197-5.883-8.064-6.789z"></path>
<path d="M124.123 8.944c-3.538 0-5.719 1.646-6.83 3.291h-0.082v-11.109h-4.32v29.417h4.32v-12.795c0-3.127 2.263-5.143 5.431-5.143 3.003 0 4.197 1.81 4.197 4.649v13.289h4.361v-14.523c0-4.814-3.086-7.077-7.077-7.077z"></path>
<path d="M144.448 27.623c-3.826 0-6.089-2.921-6.089-6.459h16.128c0-7.488-3.333-12.219-10.121-12.219-6.336 0-10.327 4.279-10.327 11.109 0 6.583 3.991 11.109 10.533 11.109 5.39 0 8.517-3.045 9.586-7.035h-4.32c-0.37 1.275-1.81 3.497-5.39 3.497zM144.366 12.359c3.497 0 5.801 2.345 5.801 5.595h-11.808c0-3.25 2.51-5.595 6.007-5.595z"></path>
<path d="M157.531 1.127v29.417h4.361v-29.417h-4.361z"></path>
<path d="M176.003 4.665v-3.538c-0.864-0.165-1.81-0.288-2.88-0.288-3.456 0-5.349 1.563-5.349 6.007v2.674h-3.003v3.538h3.003v17.486h4.361v-17.486h3.867v-3.538h-3.867v-2.304c0-2.386 1.070-2.674 3.867-2.551z"></path>
</symbol>

<symbol id="icon-trash" viewBox="0 0 32 32">
<path fill="none" stroke="#fff" style="stroke: var(--color1, #fff)" stroke-linejoin="round" stroke-linecap="round" stroke-miterlimit="4" stroke-width="2" d="M12 4h8M4 8h24M25.334 8l-0.936 14.026c-0.14 2.104-0.21 3.156-0.664 3.954-0.406 0.703-0.997 1.259-1.709 1.61l-0.023 0.010c-0.826 0.4-1.88 0.4-3.99 0.4h-4.024c-2.11 0-3.164 0-3.99-0.4-0.735-0.361-1.326-0.917-1.722-1.601l-0.010-0.019c-0.454-0.798-0.524-1.85-0.664-3.954l-0.936-14.026M13.334 14v6.666M18.666 14v6.666"></path>
</symbol>

</defs>
</svg>
